<mxfile host="app.diagrams.net" agent="Mozilla/5.0 (Windows NT 10.0; Win64; x64) AppleWebKit/537.36 (KHTML, like Gecko) Chrome/134.0.0.0 Safari/537.36" version="26.1.1">
  <diagram name="Page-1" id="xfao6fuQPVH5N2smwf6X">
    <mxGraphModel dx="1434" dy="738" grid="1" gridSize="10" guides="1" tooltips="1" connect="1" arrows="1" fold="1" page="1" pageScale="1" pageWidth="850" pageHeight="1100" math="0" shadow="0">
      <root>
        <mxCell id="0" />
        <mxCell id="1" parent="0" />
        <mxCell id="hnI2erdS7724vrodKMkM-1" value="K8s/OpenShift" style="rounded=0;whiteSpace=wrap;html=1;fillColor=#f5f5f5;fontColor=#333333;strokeColor=#666666;labelPosition=center;verticalLabelPosition=top;align=center;verticalAlign=bottom;" vertex="1" parent="1">
          <mxGeometry x="260" y="270" width="320" height="460" as="geometry" />
        </mxCell>
        <mxCell id="e06p3Hk24R48uFPyvANo-5" value="LSS/DTP" style="rounded=1;whiteSpace=wrap;html=1;labelPosition=center;verticalLabelPosition=top;align=center;verticalAlign=bottom;opacity=70;fillColor=#dae8fc;strokeColor=#6c8ebf;" parent="1" vertex="1">
          <mxGeometry x="320" y="320" width="200" height="140" as="geometry" />
        </mxCell>
        <mxCell id="e06p3Hk24R48uFPyvANo-6" style="edgeStyle=orthogonalEdgeStyle;rounded=0;orthogonalLoop=1;jettySize=auto;html=1;entryX=0;entryY=0.75;entryDx=0;entryDy=0;startArrow=classic;startFill=1;dashed=1;strokeWidth=1;" parent="1" source="e06p3Hk24R48uFPyvANo-9" target="e06p3Hk24R48uFPyvANo-25" edge="1">
          <mxGeometry relative="1" as="geometry">
            <Array as="points">
              <mxPoint x="420" y="480" />
              <mxPoint x="300" y="480" />
              <mxPoint x="300" y="363" />
            </Array>
          </mxGeometry>
        </mxCell>
        <mxCell id="e06p3Hk24R48uFPyvANo-9" value="CTP" style="rounded=1;whiteSpace=wrap;html=1;fillColor=#dae8fc;strokeColor=#6c8ebf;" parent="1" vertex="1">
          <mxGeometry x="320" y="500" width="200" height="70" as="geometry" />
        </mxCell>
        <mxCell id="e06p3Hk24R48uFPyvANo-12" style="edgeStyle=orthogonalEdgeStyle;rounded=0;orthogonalLoop=1;jettySize=auto;html=1;entryX=0.5;entryY=1;entryDx=0;entryDy=0;startArrow=classic;startFill=1;dashed=1;strokeWidth=1;" parent="1" source="e06p3Hk24R48uFPyvANo-13" target="e06p3Hk24R48uFPyvANo-9" edge="1">
          <mxGeometry relative="1" as="geometry" />
        </mxCell>
        <mxCell id="e06p3Hk24R48uFPyvANo-13" value="SOAtest/Virtualize server&lt;div&gt;&lt;div&gt;&lt;div&gt;config.properties&lt;/div&gt;&lt;/div&gt;&lt;/div&gt;" style="rounded=1;whiteSpace=wrap;html=1;fillColor=#dae8fc;strokeColor=#6c8ebf;" parent="1" vertex="1">
          <mxGeometry x="320" y="631" width="200" height="70" as="geometry" />
        </mxCell>
        <mxCell id="e06p3Hk24R48uFPyvANo-15" style="edgeStyle=orthogonalEdgeStyle;rounded=0;orthogonalLoop=1;jettySize=auto;html=1;entryX=0;entryY=0.75;entryDx=0;entryDy=0;fillColor=#dae8fc;strokeColor=#6c8ebf;strokeWidth=2;opacity=80;" parent="1" source="e06p3Hk24R48uFPyvANo-16" target="e06p3Hk24R48uFPyvANo-9" edge="1">
          <mxGeometry relative="1" as="geometry" />
        </mxCell>
        <mxCell id="e06p3Hk24R48uFPyvANo-16" value="user" style="aspect=fixed;sketch=0;html=1;dashed=0;whitespace=wrap;fillColor=#2875E2;strokeColor=#ffffff;points=[[0.005,0.63,0],[0.1,0.2,0],[0.9,0.2,0],[0.5,0,0],[0.995,0.63,0],[0.72,0.99,0],[0.5,1,0],[0.28,0.99,0]];shape=mxgraph.kubernetes.icon2;prIcon=user;labelPosition=center;verticalLabelPosition=top;align=center;verticalAlign=bottom;" parent="1" vertex="1">
          <mxGeometry x="100" y="771" width="50" height="48" as="geometry" />
        </mxCell>
        <mxCell id="e06p3Hk24R48uFPyvANo-17" style="edgeStyle=orthogonalEdgeStyle;rounded=0;orthogonalLoop=1;jettySize=auto;html=1;entryX=0;entryY=0.5;entryDx=0;entryDy=0;fillColor=#f8cecc;strokeColor=#b85450;strokeWidth=2;opacity=80;" parent="1" source="e06p3Hk24R48uFPyvANo-20" target="e06p3Hk24R48uFPyvANo-25" edge="1">
          <mxGeometry relative="1" as="geometry" />
        </mxCell>
        <mxCell id="e06p3Hk24R48uFPyvANo-18" style="edgeStyle=orthogonalEdgeStyle;rounded=0;orthogonalLoop=1;jettySize=auto;html=1;entryX=0;entryY=0.5;entryDx=0;entryDy=0;fillColor=#f8cecc;strokeColor=#b85450;strokeWidth=2;opacity=80;" parent="1" source="e06p3Hk24R48uFPyvANo-20" target="e06p3Hk24R48uFPyvANo-24" edge="1">
          <mxGeometry relative="1" as="geometry" />
        </mxCell>
        <mxCell id="e06p3Hk24R48uFPyvANo-19" style="edgeStyle=orthogonalEdgeStyle;rounded=0;orthogonalLoop=1;jettySize=auto;html=1;entryX=0;entryY=0.25;entryDx=0;entryDy=0;fillColor=#f8cecc;strokeColor=#b85450;strokeWidth=2;opacity=80;" parent="1" source="e06p3Hk24R48uFPyvANo-20" target="e06p3Hk24R48uFPyvANo-9" edge="1">
          <mxGeometry relative="1" as="geometry" />
        </mxCell>
        <mxCell id="e06p3Hk24R48uFPyvANo-20" value="admin" style="aspect=fixed;sketch=0;html=1;dashed=0;whitespace=wrap;fillColor=#f8cecc;strokeColor=#b85450;points=[[0.005,0.63,0],[0.1,0.2,0],[0.9,0.2,0],[0.5,0,0],[0.995,0.63,0],[0.72,0.99,0],[0.5,1,0],[0.28,0.99,0]];shape=mxgraph.kubernetes.icon2;prIcon=user;labelPosition=center;verticalLabelPosition=top;align=center;verticalAlign=bottom;" parent="1" vertex="1">
          <mxGeometry x="100" y="361" width="50" height="48" as="geometry" />
        </mxCell>
        <mxCell id="e06p3Hk24R48uFPyvANo-21" style="edgeStyle=orthogonalEdgeStyle;rounded=0;orthogonalLoop=1;jettySize=auto;html=1;fillColor=#fff2cc;strokeColor=#000000;dashed=1;startArrow=classic;startFill=1;" parent="1" source="e06p3Hk24R48uFPyvANo-24" target="e06p3Hk24R48uFPyvANo-25" edge="1">
          <mxGeometry relative="1" as="geometry" />
        </mxCell>
        <mxCell id="e06p3Hk24R48uFPyvANo-24" value="License Server" style="rounded=0;whiteSpace=wrap;html=1;" parent="1" vertex="1">
          <mxGeometry x="358.93" y="410" width="121.07" height="30" as="geometry" />
        </mxCell>
        <mxCell id="e06p3Hk24R48uFPyvANo-25" value="PSTsec" style="rounded=0;whiteSpace=wrap;html=1;" parent="1" vertex="1">
          <mxGeometry x="358.93" y="340" width="121.07" height="30" as="geometry" />
        </mxCell>
        <mxCell id="e06p3Hk24R48uFPyvANo-26" style="edgeStyle=orthogonalEdgeStyle;rounded=0;orthogonalLoop=1;jettySize=auto;html=1;entryX=0;entryY=0.5;entryDx=0;entryDy=0;fillColor=#dae8fc;strokeColor=#6c8ebf;strokeWidth=2;opacity=80;" parent="1" source="e06p3Hk24R48uFPyvANo-16" target="e06p3Hk24R48uFPyvANo-34" edge="1">
          <mxGeometry relative="1" as="geometry">
            <Array as="points" />
          </mxGeometry>
        </mxCell>
        <mxCell id="e06p3Hk24R48uFPyvANo-27" style="edgeStyle=orthogonalEdgeStyle;rounded=0;orthogonalLoop=1;jettySize=auto;html=1;fillColor=#ffe6cc;strokeColor=#d79b00;strokeWidth=2;dashed=1;exitX=1;exitY=0.25;exitDx=0;exitDy=0;entryX=1;entryY=0.5;entryDx=0;entryDy=0;" parent="1" source="e06p3Hk24R48uFPyvANo-9" target="e06p3Hk24R48uFPyvANo-24" edge="1">
          <mxGeometry relative="1" as="geometry">
            <mxPoint x="450" y="500" as="sourcePoint" />
            <mxPoint x="450" y="440" as="targetPoint" />
            <Array as="points">
              <mxPoint x="550" y="518" />
              <mxPoint x="550" y="425" />
            </Array>
          </mxGeometry>
        </mxCell>
        <mxCell id="e06p3Hk24R48uFPyvANo-28" style="edgeStyle=orthogonalEdgeStyle;rounded=0;orthogonalLoop=1;jettySize=auto;html=1;entryX=0;entryY=0.5;entryDx=0;entryDy=0;fillColor=#d5e8d4;strokeColor=#82b366;strokeWidth=2;opacity=80;" parent="1" source="e06p3Hk24R48uFPyvANo-30" target="e06p3Hk24R48uFPyvANo-9" edge="1">
          <mxGeometry relative="1" as="geometry" />
        </mxCell>
        <mxCell id="e06p3Hk24R48uFPyvANo-29" style="edgeStyle=orthogonalEdgeStyle;rounded=0;orthogonalLoop=1;jettySize=auto;html=1;entryX=0;entryY=0.5;entryDx=0;entryDy=0;fillColor=#d5e8d4;strokeColor=#82b366;strokeWidth=2;opacity=80;" parent="1" source="e06p3Hk24R48uFPyvANo-30" target="e06p3Hk24R48uFPyvANo-13" edge="1">
          <mxGeometry relative="1" as="geometry">
            <Array as="points">
              <mxPoint x="220" y="535" />
              <mxPoint x="220" y="666" />
            </Array>
          </mxGeometry>
        </mxCell>
        <mxCell id="e06p3Hk24R48uFPyvANo-30" value="automation" style="aspect=fixed;sketch=0;html=1;dashed=0;whitespace=wrap;fillColor=#d5e8d4;strokeColor=#82b366;points=[[0.005,0.63,0],[0.1,0.2,0],[0.9,0.2,0],[0.5,0,0],[0.995,0.63,0],[0.72,0.99,0],[0.5,1,0],[0.28,0.99,0]];shape=mxgraph.kubernetes.icon2;prIcon=user;labelPosition=center;verticalLabelPosition=top;align=center;verticalAlign=bottom;" parent="1" vertex="1">
          <mxGeometry x="100" y="511" width="50" height="48" as="geometry" />
        </mxCell>
        <mxCell id="e06p3Hk24R48uFPyvANo-31" style="edgeStyle=orthogonalEdgeStyle;rounded=0;orthogonalLoop=1;jettySize=auto;html=1;entryX=0.5;entryY=1;entryDx=0;entryDy=0;dashed=1;startArrow=classic;startFill=1;strokeWidth=1;" parent="1" source="e06p3Hk24R48uFPyvANo-34" target="e06p3Hk24R48uFPyvANo-13" edge="1">
          <mxGeometry relative="1" as="geometry" />
        </mxCell>
        <mxCell id="e06p3Hk24R48uFPyvANo-34" value="SOAtest/Virtualize Desktop&amp;nbsp;" style="rounded=1;whiteSpace=wrap;html=1;fillColor=#dae8fc;strokeColor=#6c8ebf;" parent="1" vertex="1">
          <mxGeometry x="320" y="760" width="200" height="70" as="geometry" />
        </mxCell>
        <mxCell id="e06p3Hk24R48uFPyvANo-35" style="edgeStyle=orthogonalEdgeStyle;rounded=0;orthogonalLoop=1;jettySize=auto;html=1;fillColor=#ffe6cc;strokeColor=#d79b00;strokeWidth=2;dashed=1;entryX=1;entryY=0.5;entryDx=0;entryDy=0;exitX=1;exitY=0.25;exitDx=0;exitDy=0;" parent="1" source="e06p3Hk24R48uFPyvANo-13" target="e06p3Hk24R48uFPyvANo-24" edge="1">
          <mxGeometry relative="1" as="geometry">
            <mxPoint x="470" y="520" as="sourcePoint" />
            <mxPoint x="470" y="460" as="targetPoint" />
            <Array as="points">
              <mxPoint x="560" y="649" />
              <mxPoint x="560" y="425" />
            </Array>
          </mxGeometry>
        </mxCell>
        <mxCell id="e06p3Hk24R48uFPyvANo-36" style="edgeStyle=orthogonalEdgeStyle;rounded=0;orthogonalLoop=1;jettySize=auto;html=1;fillColor=#ffe6cc;strokeColor=#d79b00;strokeWidth=2;dashed=1;entryX=1;entryY=0.5;entryDx=0;entryDy=0;exitX=1;exitY=0.25;exitDx=0;exitDy=0;" parent="1" source="e06p3Hk24R48uFPyvANo-34" target="e06p3Hk24R48uFPyvANo-24" edge="1">
          <mxGeometry relative="1" as="geometry">
            <mxPoint x="530" y="659" as="sourcePoint" />
            <mxPoint x="490" y="435" as="targetPoint" />
            <Array as="points">
              <mxPoint x="570" y="778" />
              <mxPoint x="570" y="425" />
            </Array>
          </mxGeometry>
        </mxCell>
        <mxCell id="e06p3Hk24R48uFPyvANo-37" value="HyperSQL DB" style="rounded=1;whiteSpace=wrap;html=1;" parent="1" vertex="1">
          <mxGeometry x="360" y="544" width="120" height="20" as="geometry" />
        </mxCell>
        <mxCell id="hnI2erdS7724vrodKMkM-3" value="" style="rounded=0;whiteSpace=wrap;html=1;" vertex="1" parent="1">
          <mxGeometry x="640" y="400" width="200" height="240" as="geometry" />
        </mxCell>
        <mxCell id="hnI2erdS7724vrodKMkM-4" value="" style="endArrow=none;html=1;rounded=0;strokeWidth=2;fillColor=#f8cecc;strokeColor=#b85450;" edge="1" parent="1">
          <mxGeometry width="50" height="50" relative="1" as="geometry">
            <mxPoint x="659.47" y="440" as="sourcePoint" />
            <mxPoint x="819.47" y="440" as="targetPoint" />
          </mxGeometry>
        </mxCell>
        <mxCell id="hnI2erdS7724vrodKMkM-5" value="Administrator user&lt;div&gt;actions&lt;/div&gt;" style="edgeLabel;html=1;align=center;verticalAlign=middle;resizable=0;points=[];" vertex="1" connectable="0" parent="hnI2erdS7724vrodKMkM-4">
          <mxGeometry y="-2" relative="1" as="geometry">
            <mxPoint y="-2" as="offset" />
          </mxGeometry>
        </mxCell>
        <mxCell id="hnI2erdS7724vrodKMkM-6" value="" style="endArrow=none;html=1;rounded=0;strokeWidth=2;fillColor=#d5e8d4;strokeColor=#82b366;" edge="1" parent="1">
          <mxGeometry width="50" height="50" relative="1" as="geometry">
            <mxPoint x="659.47" y="480" as="sourcePoint" />
            <mxPoint x="819.47" y="480" as="targetPoint" />
          </mxGeometry>
        </mxCell>
        <mxCell id="hnI2erdS7724vrodKMkM-7" value="Automation user&amp;nbsp;&lt;div&gt;actions&lt;/div&gt;&lt;div&gt;i.e. REST API&lt;/div&gt;" style="edgeLabel;html=1;align=center;verticalAlign=middle;resizable=0;points=[];" vertex="1" connectable="0" parent="hnI2erdS7724vrodKMkM-6">
          <mxGeometry y="-2" relative="1" as="geometry">
            <mxPoint y="-2" as="offset" />
          </mxGeometry>
        </mxCell>
        <mxCell id="hnI2erdS7724vrodKMkM-8" value="" style="endArrow=none;html=1;rounded=0;strokeWidth=2;fillColor=#dae8fc;strokeColor=#6c8ebf;" edge="1" parent="1">
          <mxGeometry width="50" height="50" relative="1" as="geometry">
            <mxPoint x="659.47" y="520" as="sourcePoint" />
            <mxPoint x="819.47" y="520" as="targetPoint" />
          </mxGeometry>
        </mxCell>
        <mxCell id="hnI2erdS7724vrodKMkM-9" value="Manual user actions" style="edgeLabel;html=1;align=center;verticalAlign=middle;resizable=0;points=[];" vertex="1" connectable="0" parent="hnI2erdS7724vrodKMkM-8">
          <mxGeometry y="-2" relative="1" as="geometry">
            <mxPoint y="-2" as="offset" />
          </mxGeometry>
        </mxCell>
        <mxCell id="hnI2erdS7724vrodKMkM-10" value="" style="endArrow=none;html=1;rounded=0;dashed=1;" edge="1" parent="1">
          <mxGeometry width="50" height="50" relative="1" as="geometry">
            <mxPoint x="659.47" y="560" as="sourcePoint" />
            <mxPoint x="819.47" y="560" as="targetPoint" />
          </mxGeometry>
        </mxCell>
        <mxCell id="hnI2erdS7724vrodKMkM-11" value="Parasoft internal auth&lt;div&gt;i.e. Basic Auth&lt;/div&gt;" style="edgeLabel;html=1;align=center;verticalAlign=middle;resizable=0;points=[];" vertex="1" connectable="0" parent="hnI2erdS7724vrodKMkM-10">
          <mxGeometry y="-2" relative="1" as="geometry">
            <mxPoint y="-2" as="offset" />
          </mxGeometry>
        </mxCell>
        <mxCell id="hnI2erdS7724vrodKMkM-14" value="" style="endArrow=none;dashed=1;html=1;rounded=0;fillColor=#fff2cc;strokeColor=#D6B656;strokeWidth=2;" edge="1" parent="1">
          <mxGeometry width="50" height="50" relative="1" as="geometry">
            <mxPoint x="660" y="600" as="sourcePoint" />
            <mxPoint x="820" y="600" as="targetPoint" />
          </mxGeometry>
        </mxCell>
        <mxCell id="hnI2erdS7724vrodKMkM-15" value="Parasoft licensing" style="edgeLabel;html=1;align=center;verticalAlign=middle;resizable=0;points=[];" vertex="1" connectable="0" parent="hnI2erdS7724vrodKMkM-14">
          <mxGeometry x="-0.0125" relative="1" as="geometry">
            <mxPoint as="offset" />
          </mxGeometry>
        </mxCell>
      </root>
    </mxGraphModel>
  </diagram>
</mxfile>
